<mxfile host="Electron" modified="2023-10-07T11:33:02.342Z" agent="Mozilla/5.0 (Windows NT 10.0; Win64; x64) AppleWebKit/537.36 (KHTML, like Gecko) draw.io/21.6.8 Chrome/114.0.5735.289 Electron/25.5.0 Safari/537.36" etag="6KfvpqmV9CoBY9YIqPRS" version="21.6.8" type="device">
  <diagram name="Page-1" id="l4pIPHC_lrgJgOoQVd0E">
    <mxGraphModel dx="2607" dy="1607" grid="1" gridSize="10" guides="1" tooltips="1" connect="1" arrows="1" fold="1" page="1" pageScale="1" pageWidth="850" pageHeight="1100" math="0" shadow="0">
      <root>
        <mxCell id="0" />
        <mxCell id="1" parent="0" />
        <mxCell id="D36cLCX15FWo5JuToIrh-49" value="" style="group" vertex="1" connectable="0" parent="1">
          <mxGeometry width="320" height="320" as="geometry" />
        </mxCell>
        <mxCell id="D36cLCX15FWo5JuToIrh-33" value="free" style="rounded=0;whiteSpace=wrap;html=1;" vertex="1" parent="D36cLCX15FWo5JuToIrh-49">
          <mxGeometry x="160" y="40" width="160" height="40" as="geometry" />
        </mxCell>
        <mxCell id="D36cLCX15FWo5JuToIrh-34" value="Name and Motto" style="text;html=1;strokeColor=none;fillColor=none;align=center;verticalAlign=middle;whiteSpace=wrap;rounded=0;" vertex="1" parent="D36cLCX15FWo5JuToIrh-49">
          <mxGeometry width="320" height="40" as="geometry" />
        </mxCell>
        <mxCell id="D36cLCX15FWo5JuToIrh-37" value="name" style="rounded=0;whiteSpace=wrap;html=1;" vertex="1" parent="D36cLCX15FWo5JuToIrh-49">
          <mxGeometry y="120" width="320" height="80" as="geometry" />
        </mxCell>
        <mxCell id="D36cLCX15FWo5JuToIrh-38" value="motto" style="rounded=0;whiteSpace=wrap;html=1;" vertex="1" parent="D36cLCX15FWo5JuToIrh-49">
          <mxGeometry y="200" width="320" height="120" as="geometry" />
        </mxCell>
        <mxCell id="D36cLCX15FWo5JuToIrh-50" value="" style="group" vertex="1" connectable="0" parent="1">
          <mxGeometry x="360" width="320" height="280" as="geometry" />
        </mxCell>
        <mxCell id="D36cLCX15FWo5JuToIrh-26" value="free" style="rounded=0;whiteSpace=wrap;html=1;" vertex="1" parent="D36cLCX15FWo5JuToIrh-50">
          <mxGeometry x="160" y="40" width="160" height="40" as="geometry" />
        </mxCell>
        <mxCell id="D36cLCX15FWo5JuToIrh-27" value="Bookshelf / Newsstand" style="text;html=1;strokeColor=none;fillColor=none;align=center;verticalAlign=middle;whiteSpace=wrap;rounded=0;" vertex="1" parent="D36cLCX15FWo5JuToIrh-50">
          <mxGeometry width="320" height="40" as="geometry" />
        </mxCell>
        <mxCell id="D36cLCX15FWo5JuToIrh-28" value="vtable" style="rounded=0;whiteSpace=wrap;html=1;" vertex="1" parent="D36cLCX15FWo5JuToIrh-50">
          <mxGeometry y="80" width="320" height="40" as="geometry" />
        </mxCell>
        <mxCell id="D36cLCX15FWo5JuToIrh-29" value="items" style="rounded=0;whiteSpace=wrap;html=1;" vertex="1" parent="D36cLCX15FWo5JuToIrh-50">
          <mxGeometry y="160" width="320" height="40" as="geometry" />
        </mxCell>
        <mxCell id="D36cLCX15FWo5JuToIrh-30" value="fd" style="rounded=0;whiteSpace=wrap;html=1;" vertex="1" parent="D36cLCX15FWo5JuToIrh-50">
          <mxGeometry y="200" width="320" height="40" as="geometry" />
        </mxCell>
        <mxCell id="D36cLCX15FWo5JuToIrh-31" value="bk" style="rounded=0;whiteSpace=wrap;html=1;" vertex="1" parent="D36cLCX15FWo5JuToIrh-50">
          <mxGeometry y="240" width="320" height="40" as="geometry" />
        </mxCell>
        <mxCell id="D36cLCX15FWo5JuToIrh-32" value="num_items" style="rounded=0;whiteSpace=wrap;html=1;" vertex="1" parent="D36cLCX15FWo5JuToIrh-50">
          <mxGeometry x="160" y="120" width="160" height="40" as="geometry" />
        </mxCell>
        <mxCell id="D36cLCX15FWo5JuToIrh-51" value="" style="group" vertex="1" connectable="0" parent="1">
          <mxGeometry x="720" width="320" height="400" as="geometry" />
        </mxCell>
        <mxCell id="D36cLCX15FWo5JuToIrh-2" value="free" style="rounded=0;whiteSpace=wrap;html=1;" vertex="1" parent="D36cLCX15FWo5JuToIrh-51">
          <mxGeometry x="160" y="40" width="160" height="40" as="geometry" />
        </mxCell>
        <mxCell id="D36cLCX15FWo5JuToIrh-3" value="CDStand" style="text;html=1;strokeColor=none;fillColor=none;align=center;verticalAlign=middle;whiteSpace=wrap;rounded=0;" vertex="1" parent="D36cLCX15FWo5JuToIrh-51">
          <mxGeometry width="320" height="40" as="geometry" />
        </mxCell>
        <mxCell id="D36cLCX15FWo5JuToIrh-4" value="vtable" style="rounded=0;whiteSpace=wrap;html=1;" vertex="1" parent="D36cLCX15FWo5JuToIrh-51">
          <mxGeometry y="80" width="320" height="40" as="geometry" />
        </mxCell>
        <mxCell id="D36cLCX15FWo5JuToIrh-5" value="fd" style="rounded=0;whiteSpace=wrap;html=1;" vertex="1" parent="D36cLCX15FWo5JuToIrh-51">
          <mxGeometry y="120" width="320" height="40" as="geometry" />
        </mxCell>
        <mxCell id="D36cLCX15FWo5JuToIrh-6" value="bk" style="rounded=0;whiteSpace=wrap;html=1;" vertex="1" parent="D36cLCX15FWo5JuToIrh-51">
          <mxGeometry y="160" width="320" height="40" as="geometry" />
        </mxCell>
        <mxCell id="D36cLCX15FWo5JuToIrh-7" value="items[0]" style="rounded=0;whiteSpace=wrap;html=1;" vertex="1" parent="D36cLCX15FWo5JuToIrh-51">
          <mxGeometry y="200" width="320" height="40" as="geometry" />
        </mxCell>
        <mxCell id="D36cLCX15FWo5JuToIrh-9" value="items[1]" style="text;html=1;strokeColor=none;fillColor=none;align=center;verticalAlign=middle;whiteSpace=wrap;rounded=0;" vertex="1" parent="D36cLCX15FWo5JuToIrh-51">
          <mxGeometry y="240" width="320" height="40" as="geometry" />
        </mxCell>
        <mxCell id="D36cLCX15FWo5JuToIrh-10" value="items[2]" style="text;html=1;strokeColor=none;fillColor=none;align=center;verticalAlign=middle;whiteSpace=wrap;rounded=0;" vertex="1" parent="D36cLCX15FWo5JuToIrh-51">
          <mxGeometry y="280" width="320" height="40" as="geometry" />
        </mxCell>
        <mxCell id="D36cLCX15FWo5JuToIrh-11" value="items[3]" style="text;html=1;strokeColor=none;fillColor=none;align=center;verticalAlign=middle;whiteSpace=wrap;rounded=0;" vertex="1" parent="D36cLCX15FWo5JuToIrh-51">
          <mxGeometry y="320" width="320" height="40" as="geometry" />
        </mxCell>
        <mxCell id="D36cLCX15FWo5JuToIrh-12" value="items[4]" style="text;html=1;strokeColor=none;fillColor=none;align=center;verticalAlign=middle;whiteSpace=wrap;rounded=0;" vertex="1" parent="D36cLCX15FWo5JuToIrh-51">
          <mxGeometry y="360" width="320" height="40" as="geometry" />
        </mxCell>
        <mxCell id="D36cLCX15FWo5JuToIrh-52" value="" style="group" vertex="1" connectable="0" parent="1">
          <mxGeometry x="1080" width="320" height="240" as="geometry" />
        </mxCell>
        <mxCell id="D36cLCX15FWo5JuToIrh-16" value="free" style="rounded=0;whiteSpace=wrap;html=1;" vertex="1" parent="D36cLCX15FWo5JuToIrh-52">
          <mxGeometry x="160" y="40" width="160" height="40" as="geometry" />
        </mxCell>
        <mxCell id="D36cLCX15FWo5JuToIrh-17" value="Brocstand" style="text;html=1;strokeColor=none;fillColor=none;align=center;verticalAlign=middle;whiteSpace=wrap;rounded=0;" vertex="1" parent="D36cLCX15FWo5JuToIrh-52">
          <mxGeometry width="320" height="40" as="geometry" />
        </mxCell>
        <mxCell id="D36cLCX15FWo5JuToIrh-18" value="vtable" style="rounded=0;whiteSpace=wrap;html=1;" vertex="1" parent="D36cLCX15FWo5JuToIrh-52">
          <mxGeometry y="80" width="320" height="40" as="geometry" />
        </mxCell>
        <mxCell id="D36cLCX15FWo5JuToIrh-19" value="items" style="rounded=0;whiteSpace=wrap;html=1;" vertex="1" parent="D36cLCX15FWo5JuToIrh-52">
          <mxGeometry y="120" width="320" height="40" as="geometry" />
        </mxCell>
        <mxCell id="D36cLCX15FWo5JuToIrh-20" value="fd" style="rounded=0;whiteSpace=wrap;html=1;" vertex="1" parent="D36cLCX15FWo5JuToIrh-52">
          <mxGeometry y="160" width="320" height="40" as="geometry" />
        </mxCell>
        <mxCell id="D36cLCX15FWo5JuToIrh-21" value="bk" style="rounded=0;whiteSpace=wrap;html=1;" vertex="1" parent="D36cLCX15FWo5JuToIrh-52">
          <mxGeometry y="200" width="320" height="40" as="geometry" />
        </mxCell>
        <mxCell id="D36cLCX15FWo5JuToIrh-103" value="" style="group" vertex="1" connectable="0" parent="1">
          <mxGeometry y="440" width="1040" height="320" as="geometry" />
        </mxCell>
        <mxCell id="D36cLCX15FWo5JuToIrh-93" value="" style="endArrow=classic;html=1;rounded=0;exitX=1;exitY=0.25;exitDx=0;exitDy=0;" edge="1" parent="D36cLCX15FWo5JuToIrh-103" source="D36cLCX15FWo5JuToIrh-59">
          <mxGeometry width="50" height="50" relative="1" as="geometry">
            <mxPoint x="710" y="230" as="sourcePoint" />
            <mxPoint x="720" y="210" as="targetPoint" />
          </mxGeometry>
        </mxCell>
        <mxCell id="D36cLCX15FWo5JuToIrh-54" value="" style="group" vertex="1" connectable="0" parent="D36cLCX15FWo5JuToIrh-103">
          <mxGeometry width="320" height="280" as="geometry" />
        </mxCell>
        <mxCell id="D36cLCX15FWo5JuToIrh-55" value="free" style="rounded=0;whiteSpace=wrap;html=1;" vertex="1" parent="D36cLCX15FWo5JuToIrh-54">
          <mxGeometry x="160" y="40" width="160" height="40" as="geometry" />
        </mxCell>
        <mxCell id="D36cLCX15FWo5JuToIrh-56" value="Bookshelf / Newsstand" style="text;html=1;strokeColor=none;fillColor=none;align=center;verticalAlign=middle;whiteSpace=wrap;rounded=0;" vertex="1" parent="D36cLCX15FWo5JuToIrh-54">
          <mxGeometry width="320" height="40" as="geometry" />
        </mxCell>
        <mxCell id="D36cLCX15FWo5JuToIrh-57" value="vtable" style="rounded=0;whiteSpace=wrap;html=1;" vertex="1" parent="D36cLCX15FWo5JuToIrh-54">
          <mxGeometry y="80" width="320" height="40" as="geometry" />
        </mxCell>
        <mxCell id="D36cLCX15FWo5JuToIrh-58" value="items" style="rounded=0;whiteSpace=wrap;html=1;" vertex="1" parent="D36cLCX15FWo5JuToIrh-54">
          <mxGeometry y="160" width="320" height="40" as="geometry" />
        </mxCell>
        <mxCell id="D36cLCX15FWo5JuToIrh-59" value="fd (item[1].num_items)" style="rounded=0;whiteSpace=wrap;html=1;" vertex="1" parent="D36cLCX15FWo5JuToIrh-54">
          <mxGeometry y="200" width="320" height="40" as="geometry" />
        </mxCell>
        <mxCell id="D36cLCX15FWo5JuToIrh-60" value="bk (item[1].max_items)" style="rounded=0;whiteSpace=wrap;html=1;" vertex="1" parent="D36cLCX15FWo5JuToIrh-54">
          <mxGeometry y="240" width="320" height="40" as="geometry" />
        </mxCell>
        <mxCell id="D36cLCX15FWo5JuToIrh-61" value="num_items" style="rounded=0;whiteSpace=wrap;html=1;" vertex="1" parent="D36cLCX15FWo5JuToIrh-54">
          <mxGeometry x="160" y="120" width="160" height="40" as="geometry" />
        </mxCell>
        <mxCell id="D36cLCX15FWo5JuToIrh-91" value="" style="endArrow=classic;html=1;rounded=0;exitX=0;exitY=0.5;exitDx=0;exitDy=0;entryX=1;entryY=0.75;entryDx=0;entryDy=0;" edge="1" parent="D36cLCX15FWo5JuToIrh-103" source="D36cLCX15FWo5JuToIrh-89" target="D36cLCX15FWo5JuToIrh-59">
          <mxGeometry width="50" height="50" relative="1" as="geometry">
            <mxPoint x="410" y="190" as="sourcePoint" />
            <mxPoint x="460" y="140" as="targetPoint" />
            <Array as="points">
              <mxPoint x="340" y="260" />
              <mxPoint x="340" y="230" />
            </Array>
          </mxGeometry>
        </mxCell>
        <mxCell id="D36cLCX15FWo5JuToIrh-92" value="" style="group" vertex="1" connectable="0" parent="D36cLCX15FWo5JuToIrh-103">
          <mxGeometry x="360" width="320" height="280" as="geometry" />
        </mxCell>
        <mxCell id="D36cLCX15FWo5JuToIrh-82" value="free" style="rounded=0;whiteSpace=wrap;html=1;" vertex="1" parent="D36cLCX15FWo5JuToIrh-92">
          <mxGeometry x="160" y="40" width="160" height="40" as="geometry" />
        </mxCell>
        <mxCell id="D36cLCX15FWo5JuToIrh-83" value="CDStand" style="text;html=1;strokeColor=none;fillColor=none;align=center;verticalAlign=middle;whiteSpace=wrap;rounded=0;" vertex="1" parent="D36cLCX15FWo5JuToIrh-92">
          <mxGeometry width="320" height="40" as="geometry" />
        </mxCell>
        <mxCell id="D36cLCX15FWo5JuToIrh-84" value="vtable" style="rounded=0;whiteSpace=wrap;html=1;container=0;" vertex="1" parent="D36cLCX15FWo5JuToIrh-92">
          <mxGeometry y="80" width="320" height="40" as="geometry" />
        </mxCell>
        <mxCell id="D36cLCX15FWo5JuToIrh-85" value="bk" style="rounded=0;whiteSpace=wrap;html=1;" vertex="1" parent="D36cLCX15FWo5JuToIrh-92">
          <mxGeometry y="160" width="320" height="40" as="geometry" />
        </mxCell>
        <mxCell id="D36cLCX15FWo5JuToIrh-86" value="item[0]" style="rounded=0;whiteSpace=wrap;html=1;" vertex="1" parent="D36cLCX15FWo5JuToIrh-92">
          <mxGeometry y="200" width="320" height="40" as="geometry" />
        </mxCell>
        <mxCell id="D36cLCX15FWo5JuToIrh-89" value="bk (item[1])" style="text;html=1;strokeColor=none;fillColor=none;align=center;verticalAlign=middle;whiteSpace=wrap;rounded=0;" vertex="1" parent="D36cLCX15FWo5JuToIrh-92">
          <mxGeometry y="240" width="320" height="40" as="geometry" />
        </mxCell>
        <mxCell id="D36cLCX15FWo5JuToIrh-90" value="fd" style="rounded=0;whiteSpace=wrap;html=1;container=0;" vertex="1" parent="D36cLCX15FWo5JuToIrh-92">
          <mxGeometry y="120" width="320" height="40" as="geometry" />
        </mxCell>
        <mxCell id="D36cLCX15FWo5JuToIrh-94" value="" style="group" vertex="1" connectable="0" parent="D36cLCX15FWo5JuToIrh-103">
          <mxGeometry x="720" width="320" height="280" as="geometry" />
        </mxCell>
        <mxCell id="D36cLCX15FWo5JuToIrh-95" value="free" style="rounded=0;whiteSpace=wrap;html=1;" vertex="1" parent="D36cLCX15FWo5JuToIrh-94">
          <mxGeometry x="160" y="40" width="160" height="40" as="geometry" />
        </mxCell>
        <mxCell id="D36cLCX15FWo5JuToIrh-96" value="Bookshelf / Newsstand" style="text;html=1;strokeColor=none;fillColor=none;align=center;verticalAlign=middle;whiteSpace=wrap;rounded=0;" vertex="1" parent="D36cLCX15FWo5JuToIrh-94">
          <mxGeometry width="320" height="40" as="geometry" />
        </mxCell>
        <mxCell id="D36cLCX15FWo5JuToIrh-97" value="vtable" style="rounded=0;whiteSpace=wrap;html=1;" vertex="1" parent="D36cLCX15FWo5JuToIrh-94">
          <mxGeometry y="80" width="320" height="40" as="geometry" />
        </mxCell>
        <mxCell id="D36cLCX15FWo5JuToIrh-98" value="items" style="rounded=0;whiteSpace=wrap;html=1;" vertex="1" parent="D36cLCX15FWo5JuToIrh-94">
          <mxGeometry y="160" width="320" height="40" as="geometry" />
        </mxCell>
        <mxCell id="D36cLCX15FWo5JuToIrh-99" value="fd (item[1].num_items)" style="rounded=0;whiteSpace=wrap;html=1;" vertex="1" parent="D36cLCX15FWo5JuToIrh-94">
          <mxGeometry y="200" width="320" height="40" as="geometry" />
        </mxCell>
        <mxCell id="D36cLCX15FWo5JuToIrh-100" value="bk (item[1].max_items)" style="rounded=0;whiteSpace=wrap;html=1;" vertex="1" parent="D36cLCX15FWo5JuToIrh-94">
          <mxGeometry y="240" width="320" height="40" as="geometry" />
        </mxCell>
        <mxCell id="D36cLCX15FWo5JuToIrh-101" value="num_items" style="rounded=0;whiteSpace=wrap;html=1;" vertex="1" parent="D36cLCX15FWo5JuToIrh-94">
          <mxGeometry x="160" y="120" width="160" height="40" as="geometry" />
        </mxCell>
        <mxCell id="D36cLCX15FWo5JuToIrh-102" value="Attempting to add a new CD (definitely out of bounds) increments num_items (which is also the fd pointer), shifting the expected location of the fd object and effectively forming a fake object at that address" style="text;html=1;strokeColor=none;fillColor=none;align=center;verticalAlign=middle;whiteSpace=wrap;rounded=0;" vertex="1" parent="D36cLCX15FWo5JuToIrh-103">
          <mxGeometry x="200" y="280" width="640" height="40" as="geometry" />
        </mxCell>
        <mxCell id="D36cLCX15FWo5JuToIrh-104" value="" style="group" vertex="1" connectable="0" parent="1">
          <mxGeometry y="800" width="320" height="400" as="geometry" />
        </mxCell>
        <mxCell id="D36cLCX15FWo5JuToIrh-105" value="free" style="rounded=0;whiteSpace=wrap;html=1;" vertex="1" parent="D36cLCX15FWo5JuToIrh-104">
          <mxGeometry x="160" y="40" width="160" height="40" as="geometry" />
        </mxCell>
        <mxCell id="D36cLCX15FWo5JuToIrh-106" value="CDStand" style="text;html=1;strokeColor=none;fillColor=none;align=center;verticalAlign=middle;whiteSpace=wrap;rounded=0;" vertex="1" parent="D36cLCX15FWo5JuToIrh-104">
          <mxGeometry width="320" height="40" as="geometry" />
        </mxCell>
        <mxCell id="D36cLCX15FWo5JuToIrh-107" value="vtable" style="rounded=0;whiteSpace=wrap;html=1;" vertex="1" parent="D36cLCX15FWo5JuToIrh-104">
          <mxGeometry y="80" width="320" height="40" as="geometry" />
        </mxCell>
        <mxCell id="D36cLCX15FWo5JuToIrh-108" value="fd" style="rounded=0;whiteSpace=wrap;html=1;" vertex="1" parent="D36cLCX15FWo5JuToIrh-104">
          <mxGeometry y="120" width="320" height="40" as="geometry" />
        </mxCell>
        <mxCell id="D36cLCX15FWo5JuToIrh-109" value="bk" style="rounded=0;whiteSpace=wrap;html=1;" vertex="1" parent="D36cLCX15FWo5JuToIrh-104">
          <mxGeometry y="160" width="320" height="40" as="geometry" />
        </mxCell>
        <mxCell id="D36cLCX15FWo5JuToIrh-110" value="items[0]" style="rounded=0;whiteSpace=wrap;html=1;" vertex="1" parent="D36cLCX15FWo5JuToIrh-104">
          <mxGeometry y="200" width="320" height="40" as="geometry" />
        </mxCell>
        <mxCell id="D36cLCX15FWo5JuToIrh-111" value="items[1]" style="text;html=1;strokeColor=none;fillColor=none;align=center;verticalAlign=middle;whiteSpace=wrap;rounded=0;" vertex="1" parent="D36cLCX15FWo5JuToIrh-104">
          <mxGeometry y="240" width="320" height="40" as="geometry" />
        </mxCell>
        <mxCell id="D36cLCX15FWo5JuToIrh-112" value="items[2]" style="text;html=1;strokeColor=none;fillColor=none;align=center;verticalAlign=middle;whiteSpace=wrap;rounded=0;" vertex="1" parent="D36cLCX15FWo5JuToIrh-104">
          <mxGeometry y="280" width="320" height="40" as="geometry" />
        </mxCell>
        <mxCell id="D36cLCX15FWo5JuToIrh-113" value="items[3]" style="text;html=1;strokeColor=none;fillColor=none;align=center;verticalAlign=middle;whiteSpace=wrap;rounded=0;" vertex="1" parent="D36cLCX15FWo5JuToIrh-104">
          <mxGeometry y="320" width="320" height="40" as="geometry" />
        </mxCell>
        <mxCell id="D36cLCX15FWo5JuToIrh-114" value="items[4]" style="text;html=1;strokeColor=none;fillColor=none;align=center;verticalAlign=middle;whiteSpace=wrap;rounded=0;" vertex="1" parent="D36cLCX15FWo5JuToIrh-104">
          <mxGeometry y="360" width="320" height="40" as="geometry" />
        </mxCell>
        <mxCell id="D36cLCX15FWo5JuToIrh-127" value="" style="group" vertex="1" connectable="0" parent="1">
          <mxGeometry x="360" y="800" width="320" height="280" as="geometry" />
        </mxCell>
        <mxCell id="D36cLCX15FWo5JuToIrh-115" value="0" style="rounded=0;whiteSpace=wrap;html=1;" vertex="1" parent="D36cLCX15FWo5JuToIrh-127">
          <mxGeometry y="80" width="320" height="40" as="geometry" />
        </mxCell>
        <mxCell id="D36cLCX15FWo5JuToIrh-116" value="CDStand vtable" style="text;html=1;strokeColor=none;fillColor=none;align=center;verticalAlign=middle;whiteSpace=wrap;rounded=0;" vertex="1" parent="D36cLCX15FWo5JuToIrh-127">
          <mxGeometry width="320" height="40" as="geometry" />
        </mxCell>
        <mxCell id="D36cLCX15FWo5JuToIrh-117" value="1" style="rounded=0;whiteSpace=wrap;html=1;" vertex="1" parent="D36cLCX15FWo5JuToIrh-127">
          <mxGeometry y="120" width="320" height="40" as="geometry" />
        </mxCell>
        <mxCell id="D36cLCX15FWo5JuToIrh-118" value="2" style="rounded=0;whiteSpace=wrap;html=1;" vertex="1" parent="D36cLCX15FWo5JuToIrh-127">
          <mxGeometry y="160" width="320" height="40" as="geometry" />
        </mxCell>
        <mxCell id="D36cLCX15FWo5JuToIrh-119" value="3" style="rounded=0;whiteSpace=wrap;html=1;" vertex="1" parent="D36cLCX15FWo5JuToIrh-127">
          <mxGeometry y="200" width="320" height="40" as="geometry" />
        </mxCell>
        <mxCell id="D36cLCX15FWo5JuToIrh-120" value="4 (TARGET)" style="rounded=0;whiteSpace=wrap;html=1;" vertex="1" parent="D36cLCX15FWo5JuToIrh-127">
          <mxGeometry y="240" width="320" height="40" as="geometry" />
        </mxCell>
        <mxCell id="D36cLCX15FWo5JuToIrh-126" value="free" style="rounded=0;whiteSpace=wrap;html=1;" vertex="1" parent="D36cLCX15FWo5JuToIrh-127">
          <mxGeometry x="160" y="40" width="160" height="40" as="geometry" />
        </mxCell>
        <mxCell id="D36cLCX15FWo5JuToIrh-134" value="" style="group" vertex="1" connectable="0" parent="1">
          <mxGeometry x="720" y="800" width="320" height="360" as="geometry" />
        </mxCell>
        <mxCell id="D36cLCX15FWo5JuToIrh-122" value="free" style="rounded=0;whiteSpace=wrap;html=1;" vertex="1" parent="D36cLCX15FWo5JuToIrh-134">
          <mxGeometry x="120" y="40" width="160" height="40" as="geometry" />
        </mxCell>
        <mxCell id="D36cLCX15FWo5JuToIrh-123" value="Name and Motto" style="text;html=1;strokeColor=none;fillColor=none;align=center;verticalAlign=middle;whiteSpace=wrap;rounded=0;" vertex="1" parent="D36cLCX15FWo5JuToIrh-134">
          <mxGeometry width="320" height="40" as="geometry" />
        </mxCell>
        <mxCell id="D36cLCX15FWo5JuToIrh-124" value="name" style="rounded=0;whiteSpace=wrap;html=1;" vertex="1" parent="D36cLCX15FWo5JuToIrh-134">
          <mxGeometry y="160" width="320" height="40" as="geometry" />
        </mxCell>
        <mxCell id="D36cLCX15FWo5JuToIrh-125" value="motto" style="rounded=0;whiteSpace=wrap;html=1;" vertex="1" parent="D36cLCX15FWo5JuToIrh-134">
          <mxGeometry y="240" width="320" height="40" as="geometry" />
        </mxCell>
        <mxCell id="D36cLCX15FWo5JuToIrh-128" value="name" style="rounded=0;whiteSpace=wrap;html=1;" vertex="1" parent="D36cLCX15FWo5JuToIrh-134">
          <mxGeometry y="120" width="280" height="40" as="geometry" />
        </mxCell>
        <mxCell id="D36cLCX15FWo5JuToIrh-129" value="name" style="rounded=0;whiteSpace=wrap;html=1;" vertex="1" parent="D36cLCX15FWo5JuToIrh-134">
          <mxGeometry x="280" y="200" width="40" height="40" as="geometry" />
        </mxCell>
        <mxCell id="D36cLCX15FWo5JuToIrh-130" value="motto" style="rounded=0;whiteSpace=wrap;html=1;" vertex="1" parent="D36cLCX15FWo5JuToIrh-134">
          <mxGeometry x="280" y="320" width="40" height="40" as="geometry" />
        </mxCell>
        <mxCell id="D36cLCX15FWo5JuToIrh-131" value="motto" style="rounded=0;whiteSpace=wrap;html=1;" vertex="1" parent="D36cLCX15FWo5JuToIrh-134">
          <mxGeometry y="200" width="280" height="40" as="geometry" />
        </mxCell>
        <mxCell id="D36cLCX15FWo5JuToIrh-133" value="motto" style="rounded=0;whiteSpace=wrap;html=1;" vertex="1" parent="D36cLCX15FWo5JuToIrh-134">
          <mxGeometry y="280" width="320" height="40" as="geometry" />
        </mxCell>
      </root>
    </mxGraphModel>
  </diagram>
</mxfile>
